<svg width="88" height="36" viewBox="0 0 88 36" fill="none" xmlns="http://www.w3.org/2000/svg">
<path d="M16.6119 13.048C18.0679 13.048 19.4439 12.392 20.1479 11L19.9879 10.792C19.4439 11.624 18.5799 12.04 17.6679 12.024C14.9959 11.96 13.3799 9.336 13.2839 7.064C13.1879 5.048 14.2759 3.128 16.5959 3.128C17.0599 3.128 17.5239 3.224 18.0039 3.4L19.4759 5.784V2.84L18.7719 3.176C18.1319 3.048 17.2999 2.872 16.5959 2.872C13.3799 2.872 11.6839 5.352 11.6839 7.928C11.6839 10.504 13.5559 13.048 16.6119 13.048ZM32.6032 13V10.52L31.1312 12.6H27.9632V3.896L27.1312 3H25.5152V3.192C25.5152 3.192 26.2832 3.24 26.2832 4.136V11.88C26.2832 12.712 25.4992 12.792 25.4992 12.792V13H32.6032ZM38.1121 7.944C38.0641 11.032 40.4961 13.08 42.9281 13.08C45.2641 13.08 47.8241 11.176 47.8721 8.12C47.9041 5.064 45.4081 2.952 43.0241 2.952C40.8161 2.952 38.1441 4.728 38.1121 7.944ZM45.9841 11.336C45.2961 11.784 44.5921 11.976 43.9361 11.976C40.6881 11.976 38.2241 7.304 40.1121 4.456C40.6881 4.056 41.3121 3.864 41.9361 3.864C44.9601 3.864 47.9201 8.216 45.9841 11.336ZM42.0001 7.992L43.0561 9.048L44.1121 7.992L43.0561 6.936L42.0001 7.992ZM53.2643 3V3.192C53.2643 3.192 54.0483 3.24 54.0483 4.184V8.92C54.1123 12.024 56.1603 13.128 58.1763 13.128C60.8483 13.128 61.7123 11.176 61.7443 9V5.032L62.9923 3H59.6003L61.3443 5.048V9C61.3443 10.936 60.5283 12.696 58.4483 12.696C56.5603 12.696 55.7283 11.272 55.7283 9V3H53.2643ZM71.9926 13C74.1206 13 76.2966 11.256 76.3126 7.832C76.2966 4.664 74.5526 3 72.4566 3H68.0086V3.192C68.0086 3.192 68.8086 3.24 68.8086 4.136V11.896C68.8086 12.696 68.0086 12.792 68.0086 12.792V13H71.9926ZM70.5046 3.304H72.1366C73.3686 3.304 74.5366 4.936 74.5366 7.992C74.5206 11.448 72.6326 12.696 71.7686 12.696H70.4886L70.5046 3.304ZM5.601 31.048C7.057 31.048 8.433 30.392 9.137 29L8.977 28.792C8.433 29.624 7.569 30.04 6.657 30.024C3.985 29.96 2.369 27.336 2.273 25.064C2.177 23.048 3.265 21.128 5.585 21.128C6.049 21.128 6.513 21.224 6.993 21.4L8.465 23.784V20.84L7.761 21.176C7.121 21.048 6.289 20.872 5.585 20.872C2.369 20.872 0.672998 23.352 0.672998 25.928C0.672998 28.504 2.545 31.048 5.601 31.048ZM16.2249 31L15.1369 29.384L15.7609 27.32H19.2489L20.0489 29.784C20.3209 30.648 19.5209 30.792 19.5209 30.792L19.5849 31H22.2089L18.9289 20.984H16.3689V21.192C16.3689 21.192 16.7369 21.24 17.0889 21.464L14.7209 29.352L13.5689 31H16.2249ZM15.8889 26.92L17.3929 21.752C17.4729 21.848 17.5209 21.96 17.5849 22.088L19.1209 26.92H15.8889ZM31.5089 20.696C29.4289 20.696 27.5089 21.8 27.6529 23.896C27.7649 25.496 28.9969 26.488 30.9009 27.224C32.0049 27.64 33.6689 28.104 33.6849 29.432C33.6849 30.248 33.2209 30.808 32.0049 30.808C30.7409 30.792 30.2129 30.168 30.2129 30.168L29.0129 27.752L28.4849 30.456C29.2369 30.648 30.4529 31.08 31.7489 31.096C34.0369 31.128 35.1089 30.056 35.1249 28.76C35.1409 27.08 33.3809 26.328 32.3089 25.944C29.8929 25.032 29.2049 24.28 29.1569 23.208C29.1249 21.832 30.2129 21.064 31.4769 21.064C32.5329 21.064 32.9969 21.608 32.9969 21.608L33.8929 24.52L35.0929 21.512C34.3889 21.224 32.9969 20.68 31.5089 20.696ZM42.1804 21.4H43.7004V29.944C43.6844 30.712 42.9164 30.792 42.9164 30.792V31H46.1804V30.792C46.1804 30.792 45.4124 30.712 45.3804 29.944V21.4H46.9004L48.4844 23.688V21H40.5964V23.688L42.1804 21.4ZM60.9454 31V28.52L59.4734 30.6H56.3054V21.896L55.4734 21H53.8574V21.192C53.8574 21.192 54.6254 21.24 54.6254 22.136V29.88C54.6254 30.712 53.8414 30.792 53.8414 30.792V31H60.9454ZM73.7361 31V28.392L72.2641 30.6H68.8401V26.12H71.2881L72.1041 27.336V24.376L71.2881 25.72H68.8401V21.336H72.2641L73.7041 23.272V21H66.3761V21.192C66.3761 21.192 67.1601 21.24 67.1601 22.136V29.88C67.1601 30.712 66.3601 30.792 66.3601 30.792V31H73.7361ZM83.6795 20.808C81.5675 20.808 79.5995 21.784 79.5995 23.752C79.5995 25.304 80.8315 26.296 82.8155 27.048C83.9195 27.448 85.7915 27.992 85.7915 29.24C85.7915 30.216 84.6715 30.744 83.3275 30.744C82.3515 30.744 81.8715 30.456 81.8715 30.456L79.8875 27.592V30.712C80.6875 30.92 81.9675 31.096 83.2475 31.096C85.6955 31.096 87.3275 30.008 87.3275 28.536C87.3275 26.92 85.3915 26.104 84.2075 25.688C81.8715 24.856 81.1995 24.136 81.1995 23.128C81.1995 21.8 82.3675 21.128 83.6475 21.128C84.6715 21.128 84.9595 21.56 84.9595 21.56L86.5275 24.504L86.9595 21.464C86.2875 21.208 85.0555 20.808 83.6795 20.808Z" fill="#FFF5C4"/>
</svg>
